<svg id="Layer_1" data-name="Layer 1" xmlns="http://www.w3.org/2000/svg" xmlns:xlink="http://www.w3.org/1999/xlink" width="48" height="48" viewBox="0 0 48 48"><defs><style>.cls-1{fill:url(#linear-gradient);}.cls-2{fill:url(#linear-gradient-2);}.cls-3{fill:none;}.cls-4{fill:url(#linear-gradient-3);}.cls-5{fill:url(#linear-gradient-4);}.cls-6{fill:url(#linear-gradient-5);}</style><linearGradient id="linear-gradient" x1="0.11" y1="1.93" x2="51.09" y2="50.95" gradientUnits="userSpaceOnUse"><stop offset="0" stop-color="#231f20"/><stop offset="0.48" stop-color="#808285"/><stop offset="1" stop-color="#231f20"/></linearGradient><linearGradient id="linear-gradient-2" x1="-7.14" y1="16.25" x2="66.47" y2="36.59" xlink:href="#linear-gradient"/><linearGradient id="linear-gradient-3" x1="6.07" y1="36.96" x2="39.9" y2="1.72" xlink:href="#linear-gradient"/><linearGradient id="linear-gradient-4" x1="18.41" y1="34.11" x2="29.31" y2="7.56" gradientUnits="userSpaceOnUse"><stop offset="0" stop-color="#03a49c"/><stop offset="0.51" stop-color="#00faa9"/><stop offset="1" stop-color="#03a49c"/></linearGradient><linearGradient id="linear-gradient-5" x1="14.82" y1="43.8" x2="43.8" y2="3.07" xlink:href="#linear-gradient"/></defs><path class="cls-1" d="M36.32,43.67h0c-5.45,0-13.39-4.5-20.24-11.45C6.44,22.44,2.2,11.4,6.44,7.11A6.08,6.08,0,0,1,11,5.45h0c5.45,0,13.39,4.49,20.24,11.45h0C40.85,26.68,45.09,37.72,40.85,42A6.08,6.08,0,0,1,36.32,43.67ZM11,6.45A5.13,5.13,0,0,0,7.15,7.81c-3.79,3.84.54,14.48,9.64,23.71,6.67,6.77,14.34,11.15,19.53,11.15a5.13,5.13,0,0,0,3.82-1.36c3.78-3.84-.54-14.48-9.64-23.71C23.82,10.83,16.16,6.45,11,6.45Z"/><path class="cls-2" d="M28.38,37.2a41.38,41.38,0,0,1-6.19-.47h0C9.83,34.89.55,28.05,1.5,21.49a8.05,8.05,0,0,1,3.42-5.21C9.36,13,17.3,11.69,25.64,12.94,38,14.78,47.27,21.61,46.33,28.17a8,8,0,0,1-3.42,5.22C39.59,35.86,34.31,37.2,28.38,37.2Zm-6-1.46c8.08,1.21,15.73,0,20-3.15a6.93,6.93,0,0,0,3-4.56c.88-6-8-12.34-19.84-14.11-8.08-1.2-15.74,0-20,3.16a7,7,0,0,0-3,4.56c-.87,6,8,12.34,19.85,14.1Z"/><line class="cls-3" x1="9.5" y1="45.07" x2="4.8" y2="52.32"/><path class="cls-4" d="M36.1,2.16a5.39,5.39,0,0,0-4.2-.42c-5.21,1.32-12,8-17.3,17C7.92,30.13,5.87,41.21,9.5,45.07l.57-.86c-3-3.64-.76-14.46,5.39-24.94C20.55,10.61,27.25,4,32.14,2.71a6.33,6.33,0,0,1,1.5-.2,3.76,3.76,0,0,1,1.94.5,3.35,3.35,0,0,1,.79.67l.56-.86A4,4,0,0,0,36.1,2.16Z"/><line class="cls-3" x1="36.37" y1="3.68" x2="10.07" y2="44.21"/><line class="cls-3" x1="37.78" y1="1.51" x2="36.93" y2="2.82"/><path class="cls-5" d="M34.28,1.87a.62.62,0,0,0-.79,0c-.59.44-1.47,1-2.49,1.63-1.42.88-3,1.88-4.42,2.93l-1.16.82C21.68,9.79,14.74,14.59,13.3,24.76c-.9,6.36-.25,11,1.92,13.74a6.93,6.93,0,0,0,4.89,2.64l.46,0a6.09,6.09,0,0,0,4.09-1.8c3.93-3.62,6.48-12.13,6.35-21.18C30.89,9.46,33.34,4.42,34.4,2.66A.64.64,0,0,0,34.28,1.87ZM30,18.2c.13,8.78-2.3,17-6,20.42a4.86,4.86,0,0,1-3.78,1.52c-.15,0-.28-.06-.43-.08a69.34,69.34,0,0,1,0-8.15l0-.48a5.71,5.71,0,0,1,1-2.65c.58-.89,1.28-1.7,2-2.57a8.93,8.93,0,0,0-2.54,2.12,2,2,0,0,0-.18.23c0-.32.06-.64.1-.94a23.62,23.62,0,0,1,1.13-4.11,47.45,47.45,0,0,1,3.88-7.74c1.49-2.49,3.13-4.91,4.86-7.28a43.85,43.85,0,0,0-5.73,6.72,37.14,37.14,0,0,0-3.86,7c-.07-.3-.14-.6-.22-.89a8.77,8.77,0,0,0-.74-1.83A6.07,6.07,0,0,0,18.29,18a14.28,14.28,0,0,0,.63,1.78,8.74,8.74,0,0,1,.49,1.73,19.14,19.14,0,0,1,0,3.63h0c-.21.74-.39,1.49-.55,2.25a40.88,40.88,0,0,0-.35,4.47c-.05,1.47-.09,2.95-.05,4.43,0,1.17.08,2.32.23,3.51A5.77,5.77,0,0,1,16,37.88c-2-2.5-2.57-7-1.72-13C15.67,15.16,22.38,10.52,26,8q.69-.46,1.2-.84c1.37-1,2.95-2,4.35-2.88l1.28-.81C31.59,6,29.91,10.86,30,18.2Z"/><path class="cls-6" d="M31.93,29.23a55.92,55.92,0,0,1-8.68,11.4c-3,3-6,5-8.61,5.63a7.45,7.45,0,0,1-1.75.23,4.65,4.65,0,0,1-2.45-.65,4.34,4.34,0,0,1-.94-.77l.57-.86A3.25,3.25,0,0,0,11,45a4.44,4.44,0,0,0,3.44.3c4.89-1.24,11.59-7.9,16.68-16.56,4.32-7.37,6.71-14.89,6.71-20a7.66,7.66,0,0,0-1.41-5.06l.56-.86C40.7,6.58,38.67,17.76,31.93,29.23Z"/></svg>